<svg xmlns="http://www.w3.org/2000/svg" viewBox="0 0 200 200" fill="none" stroke="#6366f1" stroke-width="3" stroke-linecap="round" stroke-linejoin="round">
  <!-- Brain outline 3D -->
  <path d="M60,50 C40,50 25,65 28,85 C20,90 18,108 30,118 C28,135 40,150 60,148 C70,158 90,160 100,152 C110,160 130,158 140,148 C160,150 172,135 170,118 C182,108 180,90 172,85 C175,65 160,50 140,50 C130,42 110,40 100,48 C90,40 70,42 60,50 Z" />
  <!-- Brain center line -->
  <path d="M100,48 C100,60 98,80 100,100 C102,120 100,140 100,152" stroke-dasharray="5,5" />
  <!-- Left wrinkles -->
  <path d="M45,75 C55,70 65,78 60,85" />
  <path d="M35,100 C48,95 58,102 50,110" />
  <path d="M50,125 C60,120 72,128 65,135" />
  <!-- Right wrinkles -->
  <path d="M155,75 C145,70 135,78 140,85" />
  <path d="M165,100 C152,95 142,102 150,110" />
  <path d="M150,125 C140,120 128,128 135,135" />
  <!-- Neural connection dots -->
  <circle cx="70" cy="80" r="4" fill="#6366f1" opacity="0.5" />
  <circle cx="130" cy="80" r="4" fill="#6366f1" opacity="0.5" />
  <circle cx="55" cy="108" r="4" fill="#6366f1" opacity="0.5" />
  <circle cx="145" cy="108" r="4" fill="#6366f1" opacity="0.5" />
  <circle cx="75" cy="130" r="4" fill="#6366f1" opacity="0.5" />
  <circle cx="125" cy="130" r="4" fill="#6366f1" opacity="0.5" />
  <!-- Sparkle -->
  <path d="M160,35 L165,25 L170,35 L180,38 L170,42 L165,52 L160,42 L150,38 Z" stroke-width="2" />
  <!-- Circuit lines at bottom -->
  <line x1="80" y1="170" x2="80" y2="185" stroke-width="2" />
  <line x1="100" y1="168" x2="100" y2="185" stroke-width="2" />
  <line x1="120" y1="170" x2="120" y2="185" stroke-width="2" />
  <line x1="70" y1="185" x2="130" y2="185" stroke-width="2" />
</svg>
