<svg xmlns="http://www.w3.org/2000/svg" viewBox="0 0 200 200" fill="none" stroke="#6366f1" stroke-width="3" stroke-linecap="round" stroke-linejoin="round">
  <!-- Paper sheet 3D -->
  <path d="M45,25 L145,20 L155,30 L155,170 L50,175 Z" />
  <path d="M145,20 L155,30 L145,28 Z" />
  <!-- Lines on paper -->
  <line x1="65" y1="50" x2="135" y2="48" />
  <line x1="65" y1="65" x2="130" y2="63" />
  <line x1="65" y1="80" x2="125" y2="78" />
  <line x1="65" y1="95" x2="120" y2="93" />
  <!-- Euro circle -->
  <circle cx="105" cy="135" r="22" />
  <path d="M98,125 C106,120 115,124 116,132 C117,140 110,146 102,144" />
  <line x1="92" y1="132" x2="112" y2="131" />
  <line x1="93" y1="138" x2="110" y2="137" />
  <!-- Shadow/3D base -->
  <path d="M50,175 L55,180 L160,175 L155,170" stroke-dasharray="4,4" opacity="0.4" />
</svg>
